<?xml version="1.0" encoding="utf-8"?>
<!-- Generator: Adobe Illustrator 15.0.3, SVG Export Plug-In . SVG Version: 6.00 Build 0)  -->
<!DOCTYPE svg PUBLIC "-//W3C//DTD SVG 1.1//EN" "http://www.w3.org/Graphics/SVG/1.1/DTD/svg11.dtd">
<svg version="1.1" id="Ebene_1" xmlns="http://www.w3.org/2000/svg" xmlns:xlink="http://www.w3.org/1999/xlink" x="0px" y="0px"
	 width="478.043px" height="478.047px" viewBox="0 0 478.043 478.047" enable-background="new 0 0 478.043 478.047"
	 xml:space="preserve">
<path fill="none" stroke="#000000" stroke-width="4" stroke-miterlimit="2.613" d="M239.023,18.734
	c121.656,0,220.281,98.629,220.281,220.293c0,121.657-98.625,220.281-220.281,220.281c-121.66,0-220.285-98.624-220.285-220.281
	C18.738,117.363,117.363,18.734,239.023,18.734z"/>
<path d="M352.068,226.957c-3.173,0-5.746,2.573-5.746,5.747s2.573,5.747,5.746,5.747c3.175,0,5.748-2.573,5.748-5.747
	S355.242,226.957,352.068,226.957z M351.047,233.16c-0.898,0-1.617-0.719-1.617-1.613s0.719-1.613,1.617-1.613
	c0.891,0,1.608,0.719,1.608,1.613S351.938,233.16,351.047,233.16z"/>
<path d="M125.89,227.104c-3.173,0-5.746,2.573-5.746,5.747s2.573,5.747,5.746,5.747c3.175,0,5.748-2.573,5.748-5.747
	S129.065,227.104,125.89,227.104z M126.996,233.16c-0.888,0-1.613-0.719-1.613-1.613s0.726-1.613,1.613-1.613
	c0.895,0,1.616,0.719,1.616,1.613S127.89,233.16,126.996,233.16z"/>
<path d="M239.027,39.102L239.027,39.102h-0.012c-55.195,0-105.172,22.387-141.352,58.566c-36.177,36.184-58.57,86.16-58.57,141.355
	h0.012v0.012h-0.012c0,55.191,22.395,105.168,58.57,141.348c36.18,36.188,86.155,58.562,141.352,58.562v-0.004h0.012v0.004
	c55.195,0,105.168-22.375,141.353-58.562c36.188-36.18,58.565-86.156,58.569-141.355h-0.004v-0.004h0.004
	c-0.004-55.195-22.383-105.168-58.569-141.355C344.202,61.488,294.223,39.102,239.027,39.102 M239.023,36.453h0.004v0.008
	c55.923,0,106.57,22.676,143.228,59.332c36.655,36.66,59.332,87.293,59.332,143.23h0.012v0.004h-0.012
	c0,55.926-22.677,106.575-59.332,143.23c-36.656,36.656-87.293,59.332-143.228,59.332v0.012h-0.012v-0.012
	c-55.922,0-106.57-22.676-143.227-59.332c-36.664-36.655-59.332-87.305-59.332-143.223v-0.012c0-55.93,22.668-106.57,59.344-143.23
	c36.656-36.656,87.293-59.332,143.215-59.332v-0.008L239.023,36.453L239.023,36.453z"/>
<path fill="none" stroke="#000000" stroke-width="6" stroke-miterlimit="2.613" d="M125.18,99.047
	c-4.789,3.898-9.375,8.039-13.734,12.398c-25.698,25.707-43.698,59.121-50.19,96.477"/>
<path fill="none" stroke="#000000" stroke-width="6" stroke-miterlimit="2.613" d="M226.952,58.854
	c-26.91,2.301-58.067,11.416-81.4,25.833"/>
<path fill="none" stroke="#000000" stroke-width="6" stroke-miterlimit="2.613" d="M276.008,62.391
	c-7.081-1.477-14.313-2.537-21.672-3.156"/>
<path fill="none" stroke="#000000" stroke-width="6" stroke-miterlimit="2.613" d="M418.616,225
	c-3.41-44.227-22.75-83.988-52.319-113.555c-17.5-17.5-38.578-31.422-62.031-40.57"/>
<path fill="none" stroke="#000000" stroke-width="0.5" stroke-miterlimit="2.613" d="M239.023,36.453h0.004v0.008
	c55.923,0,106.57,22.676,143.228,59.332c36.655,36.66,59.332,87.293,59.332,143.23h0.012v0.004h-0.012
	c0,55.926-22.677,106.575-59.332,143.23c-36.656,36.656-87.293,59.332-143.228,59.332v0.012h-0.012v-0.012
	c-55.922,0-106.57-22.676-143.227-59.332c-36.664-36.655-59.332-87.305-59.332-143.223v-0.012c0-55.93,22.668-106.57,59.344-143.23
	c36.656-36.656,87.293-59.332,143.215-59.332v-0.008L239.023,36.453L239.023,36.453z"/>
<polygon points="128.354,358.381 135.107,367.684 146.039,364.131 139.285,373.434 146.039,382.729 135.107,379.17 128.354,388.477 
	128.354,376.979 117.418,373.434 128.354,369.875 "/>
<polygon points="347.799,360.281 341.045,369.584 330.113,366.029 336.866,375.332 330.113,384.627 341.045,381.078 
	347.799,390.375 347.799,378.887 358.734,375.332 347.799,371.775 "/>
<rect x="237.188" y="121.637" width="3.672" height="108.484"/>
<path d="M215.051,116.25c0.82,2.07,1.309,4.75,1.309,7.672c0,1.914-0.207,3.719-0.586,5.32c6.742-1.594,13.5-2.203,20.254-1.453
	l-5.905-12.855c-2.824,0-5.552,0.125-8.168,0.371C219.586,115.527,217.281,115.844,215.051,116.25 M209.992,130.844
	c-0.188-2.07-0.849-4.387-1.996-6.652c-1.043-2.059-2.345-3.809-3.73-5.148c-8.281,2.832-15.043,6.871-20.363,11.227v0.004
	l-0.973,0.812l-0.93,0.82c-1.59,1.414-3.021,2.844-4.297,4.242l-0.048,0.059l-0.012,0.008v0.008l-0.012,0.004l-0.012,0.02
	c-7.888,7.488-17.685,12.027-26.578,16.156c-5.699,2.637-11.013,5.102-15.117,8.027c4.969-1.875,9.75-2.777,14.668-3.699
	c9.473-1.777,19.41-3.645,31.82-13.094l0.172-0.102C191.719,138.281,200.848,133.742,209.992,130.844 M206.73,118.25
	c1.185,1.336,2.324,3.008,3.285,4.914c1.238,2.441,1.988,4.879,2.25,6.996l0.91-0.25c0.586-1.766,0.914-3.809,0.914-5.988
	c0-2.707-0.512-5.211-1.371-7.215C210.645,117.152,208.652,117.668,206.73,118.25 M230.547,112.688h0.297l1.023,0.656l7.008,15.281
	l0.133,0.711c-0.086,0.613-0.664,1.043-1.273,0.953c-8.953-1.363-17.922-0.168-26.901,2.648c-9.023,2.84-18.06,7.32-27.095,12.523
	c-12.819,9.738-23.016,11.66-32.737,13.477c-6.824,1.285-13.414,2.52-20.484,6.504v-0.008l-1.233-0.09l-0.203-1.578
	c4.397-5.699,12.272-9.352,21.022-13.41c8.742-4.051,18.379-8.512,25.984-15.762l0.012-0.008c1.336-1.465,2.801-2.938,4.406-4.363
	l0.961-0.84l1.008-0.844c7.543-6.176,17.863-11.723,31.16-14.305c2.578-0.508,5.285-0.898,8.121-1.164
	C224.566,112.809,227.5,112.676,230.547,112.688"/>
<path d="M181.699,130.664c0.073,1.5,0.315,3.121,0.737,4.777c0.785,3.039,2.039,5.668,3.469,7.5c0.688-0.387,1.375-0.77,2.062-1.141
	c-1.422-1.754-2.625-4.152-3.34-6.926c-0.551-2.16-0.728-4.273-0.586-6.156l-0.855,0.688L181.699,130.664"/>
<path d="M176.93,135.336c0.271,1.07,0.625,2.168,1.078,3.281c1.102,2.727,2.57,5.031,4.113,6.648l0.979-0.738l1.008-0.574
	c-1.562-1.531-2.983-3.66-4.004-6.188c-0.608-1.512-1.026-3.016-1.246-4.453C178.184,133.992,177.547,134.664,176.93,135.336"/>
<polygon points="149.473,157.266 238.828,194.258 238.094,196.039 148.746,159.039 "/>
<polygon points="147.398,153.336 149.109,158.156 133.066,162.18 135.199,159.133 "/>
<path d="M262.992,116.25c-0.812,2.07-1.302,4.75-1.302,7.672c0,1.914,0.207,3.719,0.582,5.32
	c-6.746-1.594-13.496-2.203-20.258-1.453l5.914-12.855c2.816,0,5.539,0.125,8.16,0.371
	C258.461,115.527,260.758,115.844,262.992,116.25 M268.047,130.844c0.188-2.07,0.852-4.387,2-6.652
	c1.043-2.059,2.344-3.809,3.733-5.148c8.277,2.832,15.052,6.871,20.359,11.227l0.008,0.004l0.97,0.812l0.93,0.82
	c1.594,1.414,3.026,2.844,4.293,4.242l0.051,0.059l0.016,0.008v0.008l0.008,0.004l0.017,0.02
	c7.879,7.488,17.68,12.027,26.569,16.156c5.703,2.637,11.009,5.102,15.125,8.027c-4.969-1.875-9.758-2.777-14.668-3.699
	c-9.479-1.777-19.418-3.645-31.827-13.094l-0.168-0.102C286.328,138.281,277.195,133.742,268.047,130.844 M271.324,118.25
	c-1.195,1.336-2.332,3.008-3.302,4.914c-1.227,2.441-1.983,4.879-2.25,6.996l-0.905-0.25c-0.587-1.766-0.914-3.809-0.914-5.988
	c0-2.707,0.508-5.211,1.375-7.215C267.406,117.152,269.402,117.668,271.324,118.25 M247.492,112.688h-0.289l-1.017,0.656
	l-7.02,15.281l-0.138,0.711c0.095,0.613,0.673,1.043,1.281,0.953c8.953-1.363,17.922-0.168,26.898,2.648
	c9.022,2.84,18.059,7.32,27.094,12.523c12.828,9.738,23.016,11.66,32.733,13.477c6.836,1.285,13.427,2.52,20.484,6.504v-0.008
	l1.238-0.09l0.207-1.578c-4.402-5.699-12.277-9.352-21.023-13.41c-8.742-4.051-18.371-8.512-25.988-15.762l-0.012-0.008
	c-1.336-1.465-2.801-2.938-4.397-4.363l-0.969-0.84l-1.009-0.844c-7.539-6.176-17.866-11.723-31.159-14.305
	c-2.574-0.508-5.277-0.898-8.121-1.164C253.477,112.809,250.539,112.676,247.492,112.688"/>
<path d="M296.344,130.664c-0.078,1.5-0.316,3.121-0.734,4.777c-0.78,3.039-2.043,5.668-3.469,7.5
	c-0.688-0.387-1.383-0.77-2.065-1.141c1.426-1.754,2.629-4.152,3.34-6.926c0.551-2.16,0.733-4.273,0.586-6.156l0.854,0.688
	L296.344,130.664"/>
<path d="M301.113,135.336c-0.262,1.07-0.629,2.168-1.065,3.281c-1.113,2.727-2.586,5.031-4.125,6.648l-0.978-0.738l-1.008-0.574
	c1.556-1.531,2.98-3.66,4.008-6.188c0.609-1.512,1.017-3.016,1.242-4.453C299.859,133.992,300.5,134.664,301.113,135.336"/>
<polygon points="328.57,157.266 239.219,194.258 239.953,196.039 329.305,159.039 "/>
<polygon points="330.645,153.336 328.934,158.156 344.977,162.18 342.844,159.133 "/>
<path d="M227.73,113.941l9.996-16.711c0.43-0.707,1.353-0.941,2.07-0.516l0.539,0.559l9.977,16.668v1.543l-10,16.711
	c-0.43,0.707-1.354,0.941-2.059,0.516l-0.527-0.516l-9.996-16.711V113.941L227.73,113.941z"/>
<polygon points="239.023,100.93 230.777,114.711 239.023,128.492 247.273,114.711 "/>
<path d="M253.047,380.477c10.871-48.656-15.906-57.766-2.137-112.16c0.229-0.914,0.44-1.827,0.62-2.754
	c0.195-0.922,0.353-1.852,0.5-2.789c0.398-2.647,0.523-5.133,0.562-7.487c0.172-10.234,0.328-18.277,8.734-25.262
	c2.905-2.414,6.141-4.531,9.641-6.426c29.09-15.77,76.147-15.965,98.91-40.129c-3.423-8.059-7.574-15.729-12.371-22.945
	c-18.332,33.445-88.789,17.672-118.883,55.688c-30.771-40.629-98.797-23.492-118.056-55.75c-4.772,7.18-8.901,14.812-12.323,22.828
	c39.371,34.336,76.969,15.887,106.746,47.656c9.926,9.266,12.012,21.176,10.112,34.617c-2.09,14.875-4.102,27.199-3.901,41.103
	c0.125,8.703,0.344,16.262,3.668,24.137c5.479,12.974,6.926,33.763-1.271,49.535c5.066,0.547,10.211,0.828,15.422,0.828v-0.008
	h0.004v0.008C243.762,381.164,248.43,380.93,253.047,380.477"/>
<path stroke="#000000" d="M239.023,96.891v0.004h-0.008v-0.004c-39.234,0-74.766,15.918-100.488,41.641
	c-25.729,25.727-41.637,61.254-41.637,100.492l0,0v0.008l0,0c0,39.233,15.906,74.772,41.633,100.487
	c25.728,25.724,61.258,41.646,100.492,41.646v-0.008h0.012v0.008c39.234,0,74.767-15.922,100.488-41.646
	c25.727-25.715,41.641-61.254,41.641-100.487h-0.004v-0.008h0.004c0-39.238-15.914-74.766-41.633-100.492
	C313.793,112.809,278.262,96.891,239.023,96.891 M239.023,94.32L239.023,94.32v0.008c39.953,0,76.133,16.203,102.312,42.383
	c26.188,26.184,42.391,62.359,42.391,102.312v0.008c0,39.949-16.203,76.125-42.391,102.312
	c-26.181,26.185-62.359,42.38-102.31,42.38v0.012h-0.012v-0.012c-39.949,0-76.125-16.195-102.312-42.38
	c-26.185-26.188-42.379-62.362-42.379-102.312v-0.008c0-39.953,16.194-76.129,42.379-102.312
	c26.188-26.18,62.362-42.383,102.312-42.383V94.32H239.023z"/>
<g>
	<path d="M72.051,177.399c2.266-1.355,5.074-2.005,7.02-1.427c2.375,0.699,4.039,2.816,5,6.348c3.228-2.668,6.148-3.617,8.75-2.848
		c1.949,0.574,3.392,2.055,4.337,4.441c0.938,2.379,0.913,5.25-0.078,8.602c-0.853,2.809-2.297,5.262-4.328,7.367
		c-2.039,2.102-8.388,5.391-19.047,9.859l-0.281-3.633c6.672-3.152,11-5.406,12.992-6.77c1.983-1.363,3.319-3.191,4-5.48
		c0.641-2.164,0.703-4.039,0.194-5.637c-0.508-1.598-1.348-2.57-2.52-2.918c-1.185-0.348-2.438-0.117-3.75,0.695
		c-0.316,1.906-0.715,3.668-1.195,5.293c-0.352,1.188-0.965,2.98-1.848,5.379l-6.539-0.555c0.742-1.902,1.354-3.695,1.852-5.383
		c1.828-6.164,1.336-9.66-1.457-10.488c-1.168-0.344-4.086,1.639-5.479,3.162L72.051,177.399z"/>
	<path d="M93.959,134.708l25.768,15.601l-0.828,1.355l-8.332,2.559l-10.43-6.379l-4.875,7.969c-2.34,3.828-2.043,6.641,0.879,8.43
		c2.398,1.465,6.969,0.875,13.711-1.77l0.445,3.25c-9.07,3.684-15.711,4.23-19.935,1.648c-2.034-1.27-3.293-2.949-3.784-5.031
		c-0.484-2.086-0.164-4.051,0.969-5.895l7.25-11.867l-4.719-2.733L93.959,134.708z"/>
	<path d="M115.868,109.795c1.483,0.715,4.076,2.4,5.351,3.662c3.438,3.426,4.375,7.84,2.801,13.246
		c4.513-0.508,10.824-1.836,18.926-3.984l-0.344,3.289c-18.147,4.625-28.562,5.609-31.227,2.953c-1.72-1.711-1.5-3.641,0.647-5.797
		c1.052-1.055,2.75-2.102,5.105-3.133c-0.281-1.648-0.824-2.871-1.621-3.664c-0.629-0.625-2.654-1.217-3.896-1.564L115.868,109.795z
		"/>
	<path d="M176.461,70.359l12.879,28.594l-1.453,0.652l-8.332-2.523l-2.758-6.148c-1.332,1.504-2.906,2.672-4.742,3.496
		c-2.727,1.223-5.941,1.578-9.645,1.055c-3.704-0.523-5.98-1.711-6.845-3.574l-3.586-7.98L176.461,70.359z M173.867,84.418
		l-4.041-9.427l-10.373,5.587l4.414,9.82c0.913,2.039,2.358,2.609,4.336,1.723c0.512-0.23,1.073-0.664,1.68-1.301
		C170.484,90.188,171.812,88.055,173.867,84.418z"/>
	<path d="M213.894,61.722l4.393,11.685l-12.263,2.359c-2.241,0.43-4.069,1.211-5.491,2.34c-1.431,1.133-2.023,2.305-1.789,3.516
		c0.383,1.996,2.104,2.695,5.155,2.109c1-0.191,2.086-0.516,3.267-0.965c-0.22-1.105,0.18-2.113,1.188-3.023
		c1.017-0.906,2.457-1.543,4.344-1.902c2.191-0.422,4.044-0.312,5.556,0.324c1.512,0.641,2.391,1.57,2.617,2.781
		c0.397,2.047-0.734,3.734-3.402,5.055l8.012,3.812l-5.586,2.094l-7.875-3.789c-5.426,1.047-9.809,0.551-13.156-1.484
		c-3.344-2.039-5.289-4.477-5.836-7.32c-0.391-2.051,0.185-3.887,1.73-5.508c1.551-1.625,3.934-2.742,7.145-3.363l8.371-1.609
		l-1.258-5.984L213.894,61.722z"/>
	<path d="M337.084,89.765l-14.343,26.345l-0.922-0.504l-3.477-8.402l5.151-9.445c-2.957-0.371-5.387-1.074-7.289-2.109
		c-1.995-1.094-3.938-2.559-5.812-4.398c-1.262,0.656-3.117,1.219-5.582,1.684c1.07,3.738,2.695,8.488,4.867,14.258l-2.978,0.234
		c-5.358-13.305-7.09-21.707-5.18-25.207c0.508-0.941,1.266-1.535,2.262-1.781c0.988-0.246,1.935-0.125,2.824,0.359
		c0.875,0.477,1.887,1.332,3.035,2.57c0.973-0.941,1.676-1.809,2.109-2.602c0.434-0.797,1.229-2.947,1.418-4.146L337.084,89.765z
		 M329.948,86.134l-11.393-5.509c-0.328,1.629-0.971,3.371-1.674,4.668c-0.642,1.168-1.431,2.195-2.384,3.086
		c1.273,1.387,2.603,2.461,3.992,3.215c2.871,1.566,5.547,1.773,8.027,0.621L329.948,86.134z"/>
	<path d="M362.622,110.797c-0.655,1.508-2.2,4.215-3.42,5.531c-3.293,3.57-7.664,4.672-13.125,3.301
		c0.672,4.492,2.238,10.746,4.699,18.762l-3.301-0.219c-5.312-17.961-6.695-28.324-4.133-31.094c1.641-1.777,3.578-1.633,5.815,0.43
		c1.09,1.008,2.199,2.672,3.316,4.984c1.641-0.344,2.844-0.93,3.602-1.762c0.605-0.648,1.363-2.683,1.664-3.94L362.622,110.797z"/>
	<path d="M390.986,146.104l-6.01,3.685c1.172,0.773,2.176,1.805,3,3.098c1.801,2.816,2.234,5.855,1.305,9.129
		c-0.934,3.273-2.569,5.656-4.897,7.145c-2.445,1.562-5.438,2.223-8.984,1.984l0.984-7.555c3.926,0.52,6.789,0.199,8.594-0.953
		c1.789-1.145,2.117-2.598,0.984-4.363c-0.664-1.047-2.938-2.637-6.812-4.758l-14.023,8.957l-0.75-1.168l1.25-8.871l5.285-3.375
		c-2.719-1.613-4.543-3.152-5.479-4.613c-1.293-2.035-1.656-4.398-1.082-7.098c0.582-2.699,2.062-4.809,4.457-6.344
		c3.469-2.215,6.438-1.395,8.901,2.469c1.527,2.395,2.181,5.723,1.949,9.996l7.012-4.103L390.986,146.104z M377.023,145.152
		l0.445-0.285c-0.492-2.039-1.148-3.695-1.965-4.969c-0.935-1.469-2.062-2.633-3.388-3.5c-1.319-0.871-2.483-0.98-3.5-0.336
		c-0.543,0.352-0.844,0.895-0.897,1.641c-0.062,0.75,0.145,1.496,0.617,2.238C369.491,141.746,372.387,143.484,377.023,145.152z"/>
	<path d="M407.398,181.865l-28.578,10.193l-0.453-1.238l3.095-8.395l23.174-8.162L407.398,181.865z"/>
	<path d="M415,212.616c-1.438,0.797-4.531,1.978-6.298,2.282c-4.78,0.82-8.922-0.973-12.422-5.383
		c-2.194,3.973-4.77,9.887-7.703,17.742l-2.479-2.184c6.727-17.48,11.949-26.539,15.66-27.18c2.387-0.41,3.836,0.887,4.354,3.887
		c0.254,1.469,0.117,3.461-0.401,5.977c1.508,0.723,2.815,0.988,3.93,0.797c0.875-0.148,3.324-1.518,4.324-2.33L415,212.616z"/>
</g>
<path d="M187.985,50.141l5.954-0.521c1.518-0.132,3.33,0.14,5.44,0.818c2.105,0.678,4.033,1.746,5.788,3.199
	c1.759,1.458,4.643,2.889,9.148,9.396l-3.328,2.859c-2.643-3.71-4.349-5.999-5.118-6.873c-0.771-0.875-1.994-1.598-3.66-2.167
	c-1.665-0.568-3.634-0.756-5.918-0.556l-5.811,0.508L187.985,50.141z"/>
<path d="M169.391,93.211c0.688-0.938,2.188-3.371,4.5-7.297l4.828,1.238c-3.93,6.879-14.102,20.832-15.625,20.832l-4.758-3.168
	C158.336,104.816,168.695,94.148,169.391,93.211z"/>
<g>
	<path d="M234.669,55.874c-3.216,1.212-4.453,4.639-4.589,6.685c-0.073,1.446,0.868,2.858,2.815,4.237
		c1.944,1.376,4.321,2.162,7.126,2.355c1.083,0.074,2.2,0.048,3.349-0.083c-1.346,2.313-3.096,4.303-5.237,5.964
		c-1.915-2.414-3.933-3.695-6.054-3.84c-1.263-0.083-2.336,0.242-3.226,0.978c-0.886,0.74-1.386,1.752-1.503,3.028
		c-0.08,1.534,0.529,2.872,1.835,4.019c1.299,1.147,3.057,1.806,5.269,1.977c1.062,0.07,2.191,0.014,3.392-0.17l7.837,9.992
		l3.939-0.985l-7.771-10.146c6.197-2.542,9.484-6.491,9.849-11.843c0.206-2.955-0.597-6.323-3.092-9.605
		c0,0-2.007-2.564-5.776-3.191C240.9,54.923,238.193,54.545,234.669,55.874z M244.666,66.009c-0.802,0.819-1.691,1.191-2.646,1.131
		c-0.957-0.088-1.753-0.495-2.389-1.222c-0.637-0.728-0.916-1.67-0.838-2.828c0.166-2.419,0.801-3.745,3.08-4.562
		c0.558-0.2,2.11-0.085,2.623,0.212c1.337,0.777,1.6,2.22,1.494,3.749C245.912,64.019,245.469,65.193,244.666,66.009z"/>
	<polygon points="259.59,61.346 257.961,86.027 264.219,92.242 265.672,92.34 267.852,60.219 	"/>
</g>
<path d="M95.885,142.854l3,1.75c-3.93,6.879-13.75,23.5-15.25,25.75l-3.5-2.25C80.135,168.104,93.572,146.779,95.885,142.854z"/>
<path d="M375.568,243.715c-1.094-1.16-2.315-1.934-3.512-2.145c-1.547-0.273-1.551-2.992-1.996-4.517l-1.906-5.141
	c-1.069-2.215-2.336-4.543-3.844-6.047c-1.93-3.75-4.719-8.086-8.309-11.43c-13.57-12.664-25.267-17.141-3.091,0.133
	c2.41,3.516,5.195,6.758,7.32,10.555c4.633,3.711,6.117,10.285,7.508,15.844c-0.93,3.892-3.805,3.984-7.133,5.277
	c-2.602,0.371-5.19,0.746-7.883,1.116c-9.906,0.367-19.828-0.836-29.648-2.409c-1.293-0.648-2.602-1.203-3.983-1.759
	c-0.656-0.934-1.297-1.766-2.039-2.594c-0.258-4.272,0.367-7.354,1.801-10.522c1.547-3.406,8.816-16.293,11.602-15.152
	c0.794,0.324,1.31,0.645,1.513,1.676c-0.363,4.816-0.646,12.508,2.328,16.68c0.547,0,1.016,0.09,1.479,0.188
	c1.021-3.062-0.84-7.23-1.026-10.473c0.094-2.312,0.188-4.539,0.188-6.762c1.141-7.613,3.02-9.672,5.602-12.348l-1.327,0.262
	c-2,1.008-3.414,2.109-4.556,4.117c-0.547,0.379-1.319,0.867-2.108,1.438c-3.004,2.199-6.004,5.508-8.625,8.164
	c-4.927,5.004-8.836,14.703-11.5,19.023c-1.109,1.113-2.228,2.32-3.336,3.523c-2.312,4.172,1.022,5.93,1.022,10.276
	c-0.375,0.47-0.746,0.935-1.211,1.48c-1.953,0.875-5.664,3.324-4.938,5.293c0.616,1.66,2.379,1.395,3.75,1.512
	c1.055,0.086,2.194,0.223,2.672,0.164c-0.603-0.504-1.062-1.289-1.328-2.078c-0.605-1.742-0.242-2.012,1.233-2.819
	c2.359-1.289,4.746-1.863,7.509-2.25c0.641-0.367,1.198-0.738,1.762-1.021c2.684,0,4.543,1.301,6.941,2.039
	c1.483,0,3.53-0.371,4.637,0.738c1.762-1.289,3.16-0.457,4.453,0.836c2.504-0.367,5.18-1.668,7.69-0.742
	c3.609-0.363,7.685,1.113,11.117,1.953c1.945,1.105,4.445,1.48,6.574,1.668c1.582,0.645,3.16,1.289,4.729,2.027
	c2.688,0.375,6.484,2.602,3.521,5.566c-4.078-1.021-8.062-3.427-12.047-5.005c-3.427-0.832-6.849-1.758-10.195-2.965h-6.023
	c-6.464,0.324-18.523-1.784-23.342-0.562c-0.001-0.001-0.001-0.001-0.001-0.002c-3.059,0.375-3.059,0.375-6.397,1.207l-0.832,1.396
	c0.555,1.479,1.02,2.965,1.483,4.535v9.819c-0.836,4.535-1.672,9.177-2.602,13.806c-2.68,4.539-6.391,8.336-10.93,10.934
	c-1.297,0-2.594,0.095-3.984,0.188c-1.945-0.926-2.965-3.797-5.469-2.871c-1.758,2.312,0.652,6.668-1.293,8.613
	c-1.48-0.188-2.414-0.56-3.707-1.396c-0.836-1.758-1.672-3.422-2.504-5.094c-4.449,1.578-3.426,6.771-4.359,10.565
	c-0.457,0.371-0.918,0.738-1.477,1.113c0.094,0.461,0.184,0.926,0.281,1.477c1.852,1.207,3.979,2.039,4.44,4.353
	c-0.555,1.483-1.109,3.617-2.5,4.543c3.062,2.228,3.523,7.513,2.875,10.935c-0.836,0.362-2.227,0.926-2.594,1.758
	c-0.93,0.281-1.859,0.562-2.785,0.832c-3.059,2.777-4.355,4.172-5.746,7.969c-1.383,1.855-2.219,5.191-2.867,7.418l1.203,0.273
	c0.281-1.117,0.555-2.406,1.297-3.146c0.277-1.301,0.556-2.508,0.836-3.707c1.853-0.931,2.961-3.155,3.984-4.914
	c2.406-1.854,2.406-1.854,3.426-3.055c1.668-0.652,3.521-0.742,5.277-0.841c2.32,1.121,2.039,0.841,2.039,3.613
	c-1.105,0.746-2.219,1.484-3.332,2.228c-2.039,2.038-4.078,4.073-6.211,6.207c-1.293,3.801-3.152,7.418-3.703,11.401
	c0.188,1.938,0.371,3.978,0.551,6.012c0.469,1.668,1.488,3.707-0.18,4.816c-6.211-1.02-7.781-8.977-9.267-13.979
	c-1.272-10.548,0.056-15.113,6.578-22.613c1.484-1.293,2.504-1.758,2.781-3.694c-9.594-3.353-21.609-25.23-6.117-36.32
	c5.469-1.767,2.594,6.758,2.32,9.262c0.272,1.02,0.461,2.039,0.647,3.059c0.734,1.113,1.384,2.228,2.039,3.43
	c1.017,0.462,2.228,1.293,2.966,2.125l0.184-1.108c-1.953-0.93-2.875-4.812-3.25-6.953c-0.461-6.198,2.039-11.297,7.969-13.062
	l0.84-1.105c-2.973-2.191-6.797-1.477-10.395,0c-4.938,2.016-8.406,4.102-11.508,8.461c-3.742,5.238-3.978,9.504-2.992,14.016
	c1.699,7.711,5.328,10.355,8.961,15.137c1.449,0.695,2.93,1.785,3.504,3.211c1.016,2.531-0.984,3.52-2.586,4.945
	c-0.297,0.625-0.68,1.176-1.059,1.727c-7.669,11.008-4.902,23.238,0.854,30.75c3.25,4.25,7.348,6.742,12.438,7.828
	c7.797,1.664,1.022-2.848-0.367-11.871v-3.984c0.832-2.215,1.391-4.629,1.672-7.031c1.938-3.065,2.781-5.284,3.613-6.586
	c1.479-0.926,2.87-1.852,4.262-2.684c2.414,1.391,2.133,2.227,2.312,5.375c1.207,3.145,2.875,6.211,5.281,8.617
	c2.969,1.938,4.633,1.938,8.065,1.664l0.832-1.395c-0.188-0.551-0.366-1.021-0.555-1.478c-2.879-4.078-3.984-7.969,0.094-12.047
	c0.353,0.539,1.642,2.836,3.898,4.129c4.234,2.422,6.688,2.246,11.758,2.75c3.754,0.375,6.262,1.233,3.148-3.819
	c-4.906-3.246-4.267-6.668-3.146-12.134c1.332-1.844,3.422-3.819,6.238-5.711c15.016-10.012,32.598-21.555,41.738-43.272
	c2.496-5.926,4.194-12.328,4.284-15.5c1.375-0.75,3.492-0.422,4.41-1.406c3.677-3.973-2.379-5.941-3.562-8.73
	c-0.328-0.772-0.371-1.637-0.281-2.461c0.254-2.441,1.646-4.129,3.668-5.32c0.945-0.559,1.867-1.073,2.332-1.848
	C377.161,246.648,376.7,244.945,375.568,243.715z M315.574,247.175c-1.668-0.461-2.691-1.391-3.426-2.87
	c0.359-0.556,0.461-1.203,1.293-1.203c2.597,1.016,4.355,1.203,4.816,4.262C317.426,247.266,316.491,247.176,315.574,247.175z
	 M364.594,250.973c-2.133-0.184-4.267-0.281-6.485-0.371l0.086-0.461c1.207-0.188,2.414-0.375,3.617-0.555
	c1.11-1.664,5.282-3.703,6.852-2.133C367.836,249.215,366.163,249.766,364.594,250.973z M349.859,260.609
	c4.267,1.022,4.813,5.188,0.93,7.5c-0.562-0.461-1.207-0.836-1.859-1.199C348.288,264.777,347.077,261.531,349.859,260.609z
	 M351.527,279.414l-0.738,0.93c-0.562-0.367-1.116-0.742-1.676-1.016c0.094-0.559,0.188-1.121,0.188-1.578
	c0.558-0.094,1.112-0.188,1.574-0.188C351.245,278.02,351.245,278.02,351.527,279.414z M343.184,260.141
	c1.479,2.227-0.363,4.086-1.293,6.023c-1.853-0.367-1.853-0.367-2.228-0.73C339.387,262.555,339.293,258.848,343.184,260.141z
	 M343.559,279.789c-1.481-0.832-1.762-0.926-1.762-2.688c0.555-0.188,1.108-0.371,1.668-0.559
	C344.758,277.656,343.93,278.488,343.559,279.789z M345.316,281.266c3.797,1.395,0.832,5.473-1.945,6.023
	c-0.375-0.832-0.375-0.832-1.48-1.852c0-1.945,0.461-2.59,1.293-4.266C343.929,281.172,344.663,281.172,345.316,281.266z
	 M336.836,273.285c0.211-1.266,1.039-2.16,1.848-2.027c0.809,0.141,1.301,1.277,1.098,2.531c-0.207,1.257-1.039,2.156-1.848,2.023
	C337.116,275.664,336.625,274.539,336.836,273.285z M338.969,280.633c-0.099,0.633-0.517,1.078-0.918,1.008
	c-0.411-0.07-0.657-0.633-0.56-1.266c0.113-0.621,0.524-1.07,0.935-1C338.827,279.438,339.077,280,338.969,280.633z
	 M335.961,283.398h1.387c0.094,1.02,0.277,1.301-0.094,2.133l-1.388-0.367C335.961,284.511,335.961,283.96,335.961,283.398z
	 M293.239,301.555c1.945-0.648,2.691,1.492,1.855,2.973c-0.555-0.375-1.203-0.75-1.855-1.121V301.555z M282.024,310.246
	c-0.242-1.066-0.094-2.129,0.32-3.188c1.215,0.094,2.14,0.645,2.945,1.395C284.195,309.777,283.109,310.211,282.024,310.246z
	 M288.977,333.988c-4.352-2.879-5.184-7.324-6.306-12.141c0.102-0.934,0.188-1.852,0.188-2.691c0.371,0.101,0.836,0.933,1.392,1.398
	C285.829,324.164,290.368,329.816,288.977,333.988z M295.094,352.789c-4.172-1.762-5.188-8.156-5.188-12.227
	c0.375-1.484,0.828-4.258,2.039-5.285c0.555,0.187,1.109,0.468,1.57,0.738c1.024,2.414-0.277,4.086-0.277,6.586
	C294.719,345.656,297.41,349.738,295.094,352.789z M294.539,324.625l0.18-1.207l0.652,0.094c0.188,0.926,0.094,0.926-0.277,1.676
	L294.539,324.625z M300,331.211c-0.923-0.289-1.57-0.648-2.125-1.582C297.5,324.812,303.245,329.07,300,331.211z M302.788,324.625
	c0-1.484,0.645-2.777,1.57-3.711c2.415,1.211,1.392,3.25-0.272,4.918L302.788,324.625z M311.866,345.191
	c-4.543-2.684-4.543-2.684-5.93-3.893c-1.023-2.132-1.484-6.117,1.016-7.312c0.742,1.478,0.277,3.609,1.298,4.63
	c3.241,0-0.743-5.75,3.526-6.398c0.832,3.341,0.918,6.763,2.035,10.103C313.812,344.266,313.812,344.546,311.866,345.191z
	 M310.297,322.035c1.569,2.215,1.664,2.215-0.289,4.172C308.531,325,308.07,322.594,310.297,322.035z M310.163,316.586
	c0.759-0.398,1.578-0.305,1.837,0.188c0.258,0.504-0.141,1.229-0.898,1.617c-0.754,0.387-1.574,0.305-1.836-0.199
	C309.008,317.699,309.409,316.973,310.163,316.586z M316.14,328.124c-0.754,0.392-1.574,0.31-1.832-0.194
	c-0.257-0.492,0.141-1.219,0.895-1.609c0.759-0.395,1.585-0.313,1.844,0.19C317.304,327.016,316.898,327.729,316.14,328.124z
	 M318.258,322.035c-0.646,0.188-1.392,0.371-2.125,0.559l-0.746-0.84c-0.465-2.309,0.089-3.246,2.315-3.891
	C319.281,318.977,319.094,320.367,318.258,322.035z M316.047,313.129l0.944-0.949l0.949,0.949l-0.949,0.949L316.047,313.129z
	 M307.139,315.259c-2.039,2.043-4.914,3.527-7.785,4.082c-3.612,2.039-3.612,2.039-4.172,2.691
	c-0.551-0.188-1.104-0.375-1.758-0.562c-3.521,0.562-5.648,0.652-6.113-3.145c0.181-2.505,0.181-2.505,0.556-3.336
	c11.956-7.109,18.819-11.595,25.016-29.828c0.651-3.992,1.297-7.966,1.944-11.961c0.185-4.16,0.281-8.238,0.371-12.316
	c0.652-1.944,0.935-2.227,2.785-2.965c0.094-0.455,0.093-0.458-0.366-1.387c1.237,2.22,17.038,2.128,17.507,3.605
	c-0.188,5.75-1.017,10.941-2.039,16.685c-2.5,5.93-2.312,13.147-7.505,17.695C320.303,301.294,315.529,311.779,307.139,315.259z
	 M332.531,295.727c-0.375,0.646-0.836,1.392-1.301,2.125c-1.761-0.836-2.683-1.668-1.574-3.984c0.649-0.281,1.297-0.46,1.853-0.648
	C331.883,294.055,332.25,294.891,332.531,295.727z M323.637,307.949l-1.301,0.188l-0.188-0.926l1.396,0.281L323.637,307.949z
	 M325.485,311.746c1.578,2.227-0.09,4.172-1.848,5.473c-2.039-0.281-2.039-1.02-2.598-3.34
	C321.5,310.641,323.356,311.562,325.485,311.746z M324.75,321.707c-1.134,0.574-2.359,0.449-2.75-0.301
	c-0.38-0.742,0.226-1.82,1.354-2.406c1.125-0.586,2.356-0.453,2.747,0.293C326.484,320.031,325.883,321.117,324.75,321.707z
	 M326.788,303.227c-0.562-0.18-1.116-0.281-1.672-0.367c-0.555-1.859,0.09-2.691,1.945-2.973
	C328.258,300.82,327.434,302.207,326.788,303.227z M328.445,307.672l0.844-0.555c2.406,0,1.941,1.207,1.941,3.055
	c-2.226-0.367-2.226-0.367-2.683-0.734C328.547,308.781,328.547,308.23,328.445,307.672z M332.898,314.992
	c-1.39-0.375-1.39-0.375-1.852-0.836c0.09-0.555,0.184-1.016,0.184-1.484c1.945-1.945,2.226-0.188,2.414,1.582L332.898,314.992z
	 M334.468,304.152c-0.461,0.188-1.012,0.375-1.57,0.551c-1.293-0.645-1.39-3.148-0.461-4.071c0.648,0.086,1.297,0.273,1.859,0.461
	C334.656,302.113,335.123,302.945,334.468,304.152z M335.68,293.031c-0.555-0.18-1.211-0.367-1.853-0.551
	c-0.929-1.301-1.116-2.871-0.276-4.168c0.747-0.098,1.48-0.188,2.227-0.285C336.977,289.703,336.422,291.273,335.68,293.031z
	 M336.883,294.797l0.651-0.277c2.224,1.105,2.871,3.145,1.388,5.367c-0.556-0.176-1.203-0.277-1.852-0.363
	C336.235,298.316,336.508,296.277,336.883,294.797z M338.922,309.988c-0.828-0.281-1.668-0.457-2.039-1.207
	c-0.273-3.148,0.094-4.91,3.711-4.91C343.184,305.723,340.956,308.781,338.922,309.988z M341.891,288.027l1.203,0.375
	c1.297,1.301,1.664,4.535-0.461,5.184C339.387,292.938,339.945,289.973,341.891,288.027z M347.637,300.449
	c-0.934,0.738-1.852,1.477-2.785,2.223l-1.11-0.934c-1.483-3.516-0.647-5.367,2.688-5.367
	C347.727,297.203,347.637,299.062,347.637,300.449z M347.543,273.203l-1.207,0.844c-1.759-0.469-2.134-0.648-3.341-2.141
	C342.995,264.496,349.206,268.211,347.543,273.203z M355.015,287.009c-0.228,1.605-1.142,2.767-2.039,2.578l-0.156-0.039v0.062
	c1.665,2.5,0.094,5.005-1.854,6.574c-1.013-0.371-1.759-0.738-2.592-1.569c-1.112-3.433,0.274-4.265,3.337-4.824v-1.763
	c-1.484-1.476-0.56-3.144,0.375-4.901c2.125-0.371,2.125,0.187,2.961,1.944l-0.086,0.22
	C355.085,285.798,355.109,286.388,355.015,287.009z M355.605,275.891c-0.558-0.086-1.207-0.18-1.854-0.179
	c-0.56-1.207-0.746-3.985-0.185-5.098C357.55,270.062,359.214,274.133,355.605,275.891z M359.031,281.453
	c-0.647-0.367-1.297-0.645-2.043-0.926c0-2.59,1.763-4.078,4.172-4.449C361.991,277.75,360.695,280.809,359.031,281.453z
	 M361.625,270.52c-0.652-0.082-1.298-0.184-1.946-0.27c-1.023-1.301-1.484-3.246-1.109-4.914c1.938-1.211,3.242-0.465,4.629,0.918
	C363.387,268.762,363.758,269.043,361.625,270.52z"/>
<path d="M214.453,324.164c3.633-4.781,7.266-7.426,8.949-15.137c0.996-4.512,0.759-8.777-2.987-14.016
	c-3.099-4.359-6.567-6.445-11.509-8.461c-3.598-1.477-7.418-2.191-10.395,0l0.836,1.105c5.926,1.765,8.434,6.863,7.969,13.062
	c-0.367,2.142-1.293,6.023-3.242,6.953l0.181,1.108c0.75-0.832,1.957-1.663,2.965-2.125c0.656-1.202,1.301-2.316,2.039-3.43
	c0.187-1.02,0.375-2.039,0.652-3.059c-0.278-2.504-3.149-11.028,2.323-9.262c15.492,11.09,3.47,32.968-6.121,36.32
	c0.273,1.937,1.305,2.401,2.773,3.694c6.535,7.5,7.859,12.065,6.582,22.613c-1.478,5.003-3.06,12.96-9.258,13.979
	c-1.677-1.109-0.653-3.148-0.188-4.816c0.188-2.034,0.363-4.073,0.551-6.012c-0.551-3.983-2.401-7.601-3.702-11.401
	c-2.134-2.134-4.173-4.169-6.212-6.207c-1.108-0.743-2.227-1.481-3.336-2.228c0-2.772-0.272-2.492,2.039-3.613
	c1.759,0.099,3.617,0.188,5.281,0.841c1.021,1.2,1.021,1.2,3.43,3.055c1.016,1.759,2.137,3.983,3.988,4.914
	c0.277,1.199,0.551,2.406,0.824,3.707c0.747,0.739,1.023,2.028,1.309,3.146l1.199-0.273c-0.647-2.227-1.483-5.562-2.875-7.418
	c-1.39-3.797-2.683-5.191-5.742-7.969c-0.925-0.271-1.851-0.551-2.776-0.832c-0.375-0.832-1.759-1.396-2.599-1.758
	c-0.648-3.422-0.18-8.707,2.867-10.935c-1.383-0.926-1.937-3.06-2.496-4.543c0.469-2.313,2.599-3.146,4.453-4.353
	c0.09-0.551,0.176-1.016,0.271-1.477c-0.552-0.375-1.021-0.742-1.478-1.113c-0.925-3.795,0.086-8.987-4.358-10.565
	c-0.832,1.672-1.664,3.336-2.5,5.094c-1.298,0.836-2.224,1.207-3.712,1.396c-1.944-1.945,0.47-6.301-1.297-8.613
	c-2.5-0.926-3.52,1.945-5.465,2.871c-1.386-0.094-2.683-0.188-3.983-0.188c-4.536-2.598-8.25-6.395-10.935-10.934
	c-0.926-4.629-1.758-9.271-2.59-13.806v-9.819c0.457-1.57,0.918-3.056,1.477-4.535l-0.832-1.396c-3.34-0.832-3.34-0.832-6.387-1.207
	c0,0.001,0,0.001-0.001,0.002c-4.833-1.224-16.893,0.886-23.354,0.562h-6.023c-3.34,1.207-6.765,2.133-10.195,2.965
	c-3.984,1.578-7.969,3.984-12.047,5.005c-2.965-2.965,0.832-5.191,3.523-5.566c1.575-0.738,3.145-1.383,4.727-2.027
	c2.134-0.188,4.629-0.562,6.574-1.668c3.426-0.84,7.504-2.316,11.121-1.953c2.497-0.926,5.192,0.375,7.688,0.742
	c1.301-1.293,2.687-2.125,4.452-0.836c1.113-1.109,3.153-0.738,4.634-0.738c2.409-0.738,4.261-2.039,6.944-2.039
	c0.563,0.282,1.118,0.653,1.771,1.021c2.754,0.387,5.137,0.961,7.5,2.25c1.476,0.808,1.832,1.077,1.242,2.819
	c-0.27,0.789-0.727,1.574-1.324,2.078c0.461,0.059,1.604-0.078,2.664-0.164c1.367-0.117,3.137,0.148,3.746-1.512
	c0.727-1.969-2.98-4.418-4.941-5.293c-0.461-0.546-0.828-1.011-1.199-1.48c0-4.347,3.329-6.104,1.021-10.276
	c-1.113-1.203-2.228-2.41-3.34-3.523c-2.66-4.32-6.574-14.019-11.505-19.023c-2.616-2.656-5.604-5.965-8.616-8.164
	c-0.785-0.571-1.57-1.059-2.117-1.438c-1.129-2.008-2.555-3.109-4.551-4.117l-1.324-0.262c2.578,2.676,4.465,4.735,5.594,12.348
	c0,2.223,0.103,4.45,0.188,6.762c-0.188,3.243-2.043,7.411-1.023,10.473c0.468-0.098,0.938-0.188,1.488-0.188
	c2.965-4.172,2.683-11.864,2.319-16.68c0.2-1.031,0.728-1.352,1.513-1.676c2.782-1.141,10.055,11.746,11.602,15.152
	c1.438,3.168,2.063,6.25,1.806,10.522c-0.738,0.828-1.392,1.66-2.039,2.594c-1.391,0.556-2.695,1.11-3.984,1.759
	c-9.828,1.573-19.734,2.776-29.656,2.409c-2.688-0.37-5.276-0.745-7.879-1.116c-3.328-1.293-6.199-1.386-7.129-5.277
	c1.387-5.559,2.875-12.133,7.504-15.844c2.132-3.797,4.91-7.039,7.316-10.555c22.18-17.274,10.483-12.797-3.086-0.133
	c-3.586,3.344-6.384,7.68-8.31,11.43c-1.5,1.504-2.766,3.832-3.844,6.047l-1.898,5.141c-0.448,1.524-0.448,4.243-2.004,4.517
	c-1.194,0.211-2.422,0.984-3.504,2.145c-1.144,1.23-1.598,2.934-0.871,4.168c0.453,0.774,1.387,1.289,2.324,1.848
	c2.027,1.191,3.418,2.879,3.668,5.32c0.094,0.824,0.047,1.688-0.281,2.461c-1.183,2.789-7.233,4.758-3.562,8.73
	c0.926,0.984,3.035,0.656,4.418,1.406c0.082,3.172,1.781,9.574,4.277,15.5c9.14,21.718,26.729,33.261,41.741,43.272
	c2.812,1.892,4.906,3.867,6.246,5.711c1.106,5.466,1.759,8.888-3.164,12.134c-3.105,5.053-0.598,4.194,3.164,3.819
	c5.063-0.504,7.524-0.328,11.754-2.75c2.262-1.293,3.551-3.59,3.902-4.129c4.078,4.078,2.965,7.969,0.094,12.047
	c-0.187,0.457-0.374,0.927-0.562,1.478l0.832,1.395c3.433,0.273,5.101,0.273,8.062-1.664c2.414-2.406,4.078-5.473,5.285-8.617
	c0.188-3.148-0.094-3.984,2.316-5.375c1.387,0.832,2.773,1.758,4.258,2.684c0.844,1.302,1.676,3.521,3.621,6.586
	c0.269,2.402,0.832,4.816,1.664,7.031v3.984c-1.383,9.023-8.156,13.535-0.371,11.871c5.101-1.086,9.195-3.578,12.453-7.828
	c5.754-7.512,8.52-19.742,0.852-30.75c-0.383-0.551-0.769-1.102-1.074-1.727c-1.593-1.426-3.586-2.414-2.565-4.945
	C211.523,325.949,213.012,324.859,214.453,324.164z M164.601,243.102c0.832,0,0.926,0.647,1.297,1.203
	c-0.742,1.479-1.758,2.409-3.43,2.87c-0.921,0.001-1.851,0.091-2.683,0.188C160.254,244.305,162.012,244.117,164.601,243.102z
	 M116.238,249.586c1.195,0.18,2.402,0.367,3.609,0.555l0.094,0.461c-2.226,0.09-4.354,0.188-6.479,0.371
	c-1.582-1.207-3.246-1.758-4.086-3.52C110.953,245.883,115.117,247.922,116.238,249.586z M195.703,307.059
	c0.409,1.059,0.562,2.121,0.315,3.188c-1.078-0.035-2.175-0.469-3.257-1.793C193.559,307.703,194.485,307.152,195.703,307.059z
	 M184.805,301.555v1.852c-0.649,0.371-1.301,0.746-1.852,1.121C182.117,303.047,182.859,300.906,184.805,301.555z M142.184,285.164
	l-1.395,0.367c-0.375-0.832-0.188-1.113-0.095-2.133h1.396C142.09,283.96,142.09,284.511,142.184,285.164z M139.359,271.258
	c0.81-0.133,1.642,0.762,1.853,2.027c0.211,1.254-0.281,2.379-1.103,2.527c-0.809,0.133-1.641-0.767-1.84-2.023
	C138.058,272.535,138.55,271.398,139.359,271.258z M139.992,281.641c-0.406,0.07-0.81-0.375-0.923-1.008
	c-0.098-0.633,0.148-1.195,0.548-1.258c0.409-0.07,0.82,0.379,0.93,1C140.649,281.008,140.402,281.57,139.992,281.641z
	 M134.859,260.141c3.892-1.293,3.797,2.414,3.523,5.293c-0.37,0.363-0.37,0.363-2.227,0.73
	C135.234,264.227,133.375,262.367,134.859,260.141z M134.484,279.789c-0.366-1.301-1.207-2.133,0.095-3.246
	c0.555,0.188,1.112,0.371,1.676,0.559C136.254,278.863,135.973,278.957,134.484,279.789z M136.156,285.438
	c-1.109,1.02-1.109,1.02-1.484,1.852c-2.777-0.551-5.742-4.629-1.945-6.023c0.648-0.094,1.392-0.094,2.133-0.094
	C135.692,282.848,136.156,283.492,136.156,285.438z M128.192,260.609c2.777,0.922,1.57,4.168,0.918,6.301
	c-0.648,0.363-1.294,0.738-1.844,1.199C123.368,265.797,123.926,261.632,128.192,260.609z M128.93,279.328
	c-0.555,0.273-1.114,0.648-1.664,1.016l-0.75-0.93c0.281-1.395,0.281-1.395,0.656-1.852c0.457,0,1.02,0.094,1.57,0.188
	C128.742,278.207,128.836,278.77,128.93,279.328z M114.844,266.254c1.395-1.383,2.684-2.129,4.629-0.918
	c0.375,1.668-0.09,3.613-1.104,4.914c-0.653,0.086-1.299,0.188-1.942,0.27C114.289,269.043,114.656,268.762,114.844,266.254z
	 M119.016,281.453c-1.672-0.645-2.965-3.703-2.133-5.375c2.406,0.371,4.172,1.859,4.172,4.449
	C120.312,280.809,119.66,281.086,119.016,281.453z M124.477,270.614c0.562,1.112,0.375,3.891-0.18,5.098
	c-0.652-0.001-1.297,0.093-1.859,0.179C118.829,274.133,120.493,270.062,124.477,270.614z M129.668,294.613
	c-0.832,0.832-1.57,1.199-2.599,1.57c-1.944-1.569-3.516-4.074-1.844-6.574v-0.062l-0.156,0.039
	c-0.897,0.188-1.812-0.973-2.047-2.578c-0.082-0.621-0.059-1.211,0.06-1.719L123,285.07c0.832-1.758,0.832-2.316,2.965-1.945
	c0.926,1.758,1.852,3.426,0.371,4.902v1.762C129.391,290.348,130.781,291.18,129.668,294.613z M135.047,271.906
	c-1.207,1.492-1.582,1.672-3.34,2.141l-1.207-0.844C128.836,268.211,135.047,264.496,135.047,271.906z M134.304,301.738
	l-1.109,0.934c-0.926-0.746-1.858-1.484-2.78-2.223c0-1.387-0.095-3.246,1.198-4.078
	C134.953,296.371,135.785,298.223,134.304,301.738z M134.953,288.402l1.202-0.375c1.949,1.945,2.5,4.91-0.733,5.559
	C133.277,292.938,133.652,289.703,134.953,288.402z M141.156,308.781c-0.366,0.75-1.198,0.926-2.038,1.207
	c-2.031-1.207-4.259-4.266-1.656-6.117C141.07,303.871,141.434,305.633,141.156,308.781z M140.976,299.523
	c-0.647,0.086-1.3,0.188-1.858,0.363c-1.48-2.223-0.828-4.262,1.391-5.367l0.647,0.277
	C141.527,296.277,141.808,298.316,140.976,299.523z M142.265,288.027c0.75,0.098,1.488,0.188,2.228,0.285
	c0.836,1.297,0.647,2.867-0.271,4.168c-0.652,0.184-1.3,0.371-1.854,0.551C141.621,291.273,141.07,289.703,142.265,288.027z
	 M143.755,301.093c0.559-0.188,1.207-0.375,1.852-0.461c0.933,0.923,0.831,3.427-0.466,4.071c-0.547-0.176-1.104-0.363-1.57-0.551
	C142.923,302.945,143.383,302.113,143.755,301.093z M145.511,295.727c0.281-0.836,0.652-1.672,1.027-2.508
	c0.547,0.188,1.198,0.367,1.852,0.648c1.106,2.316,0.188,3.148-1.578,3.984C146.351,297.118,145.886,296.372,145.511,295.727z
	 M145.141,314.992l-0.733-0.738c0.188-1.77,0.461-3.527,2.405-1.582c0,0.469,0.095,0.93,0.188,1.484
	C146.539,314.617,146.539,314.617,145.141,314.992z M149.495,309.438c-0.456,0.367-0.456,0.367-2.684,0.734
	c0-1.848-0.461-3.055,1.945-3.055l0.832,0.555C149.495,308.23,149.495,308.781,149.495,309.438z M150.985,299.887
	c1.853,0.281,2.496,1.113,1.945,2.973c-0.555,0.086-1.114,0.188-1.664,0.367C150.61,302.207,149.778,300.82,150.985,299.887z
	 M156.04,321.406c-0.383,0.75-1.609,0.875-2.746,0.301c-1.129-0.59-1.734-1.676-1.349-2.414c0.387-0.746,1.616-0.879,2.742-0.293
	C155.825,319.586,156.422,320.664,156.04,321.406z M154.406,317.219c-1.758-1.301-3.422-3.246-1.844-5.473
	c2.125-0.184,3.984-1.105,4.445,2.133C156.445,316.199,156.445,316.938,154.406,317.219z M154.406,307.949l0.095-0.457l1.395-0.281
	l-0.188,0.926L154.406,307.949z M159.785,322.035c-0.832-1.668-1.021-3.059,0.559-4.172c2.227,0.645,2.773,1.582,2.312,3.891
	l-0.741,0.84C161.18,322.406,160.441,322.223,159.785,322.035z M160.102,313.129l0.949-0.949l0.949,0.949l-0.949,0.949
	L160.102,313.129z M163.734,327.93c-0.246,0.504-1.078,0.586-1.836,0.194c-0.754-0.396-1.151-1.108-0.895-1.613
	c0.257-0.504,1.079-0.585,1.833-0.19C163.594,326.711,163.992,327.438,163.734,327.93z M172.109,341.299
	c-1.39,1.209-1.39,1.209-5.925,3.893c-1.945-0.646-1.945-0.926-1.945-2.871c1.105-3.34,1.195-6.762,2.027-10.103
	c4.273,0.648,0.289,6.398,3.527,6.398c1.02-1.021,0.559-3.152,1.293-4.63C173.594,335.182,173.125,339.167,172.109,341.299z
	 M168.773,318.191c-0.246,0.504-1.078,0.586-1.828,0.199c-0.762-0.388-1.159-1.113-0.901-1.617c0.258-0.492,1.078-0.586,1.832-0.188
	C168.633,316.973,169.039,317.699,168.773,318.191z M168.035,326.207c-1.949-1.957-1.853-1.957-0.281-4.172
	C169.98,322.594,169.512,325,168.035,326.207z M173.965,325.832c-1.668-1.668-2.695-3.707-0.281-4.918
	c0.926,0.934,1.57,2.227,1.57,3.711L173.965,325.832z M170.894,315.259c-8.383-3.479-13.153-13.965-18.438-20.741
	c-5.191-4.548-5.004-11.766-7.5-17.695c-1.02-5.743-1.859-10.935-2.039-16.685c0.461-1.479,16.294-1.386,17.517-3.608
	c-0.465,0.932-0.466,0.934-0.372,1.39c1.848,0.738,2.132,1.021,2.777,2.965c0.094,4.078,0.187,8.156,0.375,12.316
	c0.645,3.995,1.29,7.969,1.938,11.961c6.203,18.233,13.074,22.719,25.027,29.828c0.371,0.831,0.371,0.831,0.551,3.336
	c-0.469,3.797-2.594,3.707-6.117,3.145c-0.645,0.188-1.195,0.374-1.758,0.562c-0.555-0.652-0.555-0.652-4.172-2.691
	C175.812,318.786,172.941,317.302,170.894,315.259z M183.504,324.625l-0.551,0.562c-0.375-0.75-0.47-0.75-0.281-1.676l0.647-0.094
	L183.504,324.625z M180.176,329.629c-0.563,0.934-1.207,1.293-2.133,1.582C174.797,329.07,180.547,324.812,180.176,329.629z
	 M182.953,352.789c-2.32-3.051,0.366-7.133,1.852-10.188c0-2.5-1.301-4.172-0.281-6.586c0.47-0.271,1.023-0.552,1.578-0.738
	c1.203,1.027,1.668,3.801,2.039,5.285C188.141,344.633,187.117,351.027,182.953,352.789z M189.062,333.988
	c-1.387-4.172,3.16-9.824,4.73-13.434c0.559-0.466,1.02-1.298,1.395-1.398c0,0.84,0.082,1.758,0.181,2.691
	C194.25,326.664,193.418,331.109,189.062,333.988z"/>
</svg>
